<svg 
 xmlns="http://www.w3.org/2000/svg"
 xmlns:xlink="http://www.w3.org/1999/xlink"
 width="60px" height="60px">
<path fill-rule="evenodd"  fill="rgb(250, 79, 1)"
 d="M54.880,15.225 C55.098,15.442 55.223,15.744 55.223,16.053 C55.223,16.361 55.098,16.663 54.880,16.881 C54.662,17.100 54.360,17.224 54.051,17.224 C53.743,17.224 53.441,17.100 53.223,16.881 C53.005,16.663 52.879,16.361 52.879,16.053 C52.879,15.744 53.005,15.442 53.223,15.225 C53.441,15.007 53.743,14.881 54.051,14.881 C54.360,14.881 54.662,15.007 54.880,15.225 ZM48.388,35.623 C50.843,35.623 52.841,37.620 52.841,40.077 C52.841,42.532 50.843,44.529 48.388,44.529 C45.932,44.529 43.935,42.532 43.935,40.077 C43.935,37.620 45.932,35.623 48.388,35.623 ZM48.388,42.186 C49.551,42.186 50.497,41.240 50.497,40.077 C50.497,38.913 49.551,37.967 48.388,37.967 C47.225,37.967 46.279,38.913 46.279,40.077 C46.279,41.240 47.225,42.186 48.388,42.186 ZM48.388,23.435 C50.843,23.435 52.841,25.434 52.841,27.889 C52.841,30.345 50.843,32.343 48.388,32.343 C45.932,32.343 43.935,30.345 43.935,27.889 C43.935,25.434 45.932,23.435 48.388,23.435 ZM48.388,29.998 C49.551,29.998 50.497,29.052 50.497,27.889 C50.497,26.725 49.551,25.780 48.388,25.780 C47.225,25.780 46.279,26.725 46.279,27.889 C46.279,29.052 47.225,29.998 48.388,29.998 ZM37.450,23.435 C39.906,23.435 41.904,25.434 41.904,27.889 C41.904,30.345 39.906,32.343 37.450,32.343 C34.995,32.343 32.997,30.345 32.997,27.889 C32.997,25.434 34.995,23.435 37.450,23.435 ZM37.450,29.998 C38.613,29.998 39.560,29.052 39.560,27.889 C39.560,26.725 38.613,25.780 37.450,25.780 C36.287,25.780 35.341,26.725 35.341,27.889 C35.341,29.052 36.287,29.998 37.450,29.998 ZM34.998,51.685 C35.216,51.903 35.341,52.204 35.341,52.512 C35.341,52.820 35.216,53.122 34.998,53.342 C34.780,53.561 34.478,53.684 34.169,53.684 C33.861,53.684 33.559,53.561 33.341,53.342 C33.123,53.122 32.997,52.821 32.997,52.512 C32.997,52.204 33.123,51.903 33.341,51.685 C33.559,51.466 33.861,51.341 34.169,51.341 C34.478,51.341 34.780,51.466 34.998,51.685 ZM37.450,35.623 C39.906,35.623 41.904,37.620 41.904,40.077 C41.904,42.532 39.906,44.529 37.450,44.529 C34.995,44.529 32.997,42.532 32.997,40.077 C32.997,37.620 34.995,35.623 37.450,35.623 ZM37.450,42.186 C38.613,42.186 39.560,41.240 39.560,40.077 C39.560,38.913 38.613,37.967 37.450,37.967 C36.287,37.967 35.341,38.913 35.341,40.077 C35.341,41.240 36.287,42.186 37.450,42.186 ZM26.513,35.623 C28.968,35.623 30.966,37.620 30.966,40.077 C30.966,42.532 28.968,44.529 26.513,44.529 C24.057,44.529 22.060,42.532 22.060,40.077 C22.060,37.620 24.057,35.623 26.513,35.623 ZM26.513,42.186 C27.676,42.186 28.622,41.240 28.622,40.077 C28.622,38.913 27.676,37.967 26.513,37.967 C25.350,37.967 24.404,38.913 24.404,40.077 C24.404,41.240 25.350,42.186 26.513,42.186 ZM26.513,23.435 C28.968,23.435 30.966,25.434 30.966,27.889 C30.966,30.345 28.968,32.343 26.513,32.343 C24.057,32.343 22.060,30.345 22.060,27.889 C22.060,25.434 24.057,23.435 26.513,23.435 ZM26.513,29.998 C27.676,29.998 28.622,29.052 28.622,27.889 C28.622,26.725 27.676,25.780 26.513,25.780 C25.350,25.780 24.404,26.725 24.404,27.889 C24.404,29.052 25.350,29.998 26.513,29.998 ZM20.029,27.889 C20.029,30.345 18.031,32.343 15.575,32.343 C13.120,32.343 11.122,30.345 11.122,27.889 C11.122,25.434 13.120,23.435 15.575,23.435 C18.031,23.435 20.029,25.434 20.029,27.889 ZM13.466,27.889 C13.466,29.052 14.412,29.998 15.575,29.998 C16.739,29.998 17.685,29.052 17.685,27.889 C17.685,26.725 16.739,25.780 15.575,25.780 C14.412,25.780 13.466,26.725 13.466,27.889 ZM55.546,59.998 L4.453,59.998 C1.998,59.998 -0.000,58.001 -0.000,55.545 L-0.000,52.513 C-0.000,51.866 0.525,51.340 1.172,51.340 L4.342,51.340 C2.294,49.578 0.993,46.969 0.993,44.061 C0.993,38.762 5.304,34.452 10.603,34.452 C15.901,34.452 20.212,38.762 20.212,44.061 C20.212,46.969 18.912,49.578 16.864,51.340 L28.573,51.340 C29.220,51.340 29.745,51.866 29.745,52.513 C29.745,53.160 29.220,53.685 28.573,53.685 L2.344,53.685 L2.344,55.545 C2.344,56.708 3.290,57.655 4.453,57.655 L51.625,57.655 C51.285,57.026 51.092,56.308 51.092,55.544 L51.092,53.685 L38.633,53.685 C37.986,53.685 37.461,53.160 37.461,52.513 C37.461,51.866 37.986,51.340 38.633,51.340 L52.264,51.340 C52.911,51.340 53.436,51.866 53.436,52.513 L53.436,55.544 C53.436,56.708 54.382,57.655 55.546,57.655 C56.710,57.655 57.656,56.708 57.656,55.544 L57.656,11.014 C57.656,9.075 56.079,7.499 54.140,7.499 L48.555,7.499 L48.555,8.964 C48.555,10.902 46.977,12.479 45.039,12.479 C43.100,12.479 41.523,10.902 41.523,8.964 L41.523,7.499 L21.836,7.499 L21.836,8.964 C21.836,10.902 20.259,12.479 18.320,12.479 C16.382,12.479 14.805,10.902 14.805,8.964 L14.805,7.455 C14.705,7.482 14.601,7.499 14.492,7.499 L9.823,7.499 C7.884,7.499 6.307,9.075 6.307,11.014 L6.307,14.881 L48.555,14.881 C49.202,14.881 49.726,15.406 49.726,16.053 C49.726,16.700 49.202,17.224 48.555,17.224 L6.307,17.224 L6.307,30.976 C6.307,31.622 5.782,32.147 5.135,32.147 C4.488,32.147 3.963,31.622 3.963,30.976 L3.963,11.014 C3.963,7.783 6.592,5.155 9.823,5.155 L14.492,5.155 C14.601,5.155 14.705,5.170 14.805,5.198 L14.805,3.514 C14.805,1.576 16.382,-0.002 18.320,-0.002 C20.259,-0.002 21.836,1.576 21.836,3.514 L21.836,5.155 L41.523,5.155 L41.523,3.514 C41.523,1.576 43.100,-0.002 45.039,-0.002 C46.977,-0.002 48.555,1.576 48.555,3.514 L48.555,5.155 L54.140,5.155 C57.371,5.155 60.000,7.783 60.000,11.014 L60.000,55.544 C60.000,58.001 58.002,59.998 55.546,59.998 ZM10.603,51.326 C14.609,51.326 17.868,48.067 17.868,44.061 C17.868,40.054 14.609,36.796 10.603,36.796 C6.597,36.796 3.337,40.054 3.337,44.061 C3.337,48.067 6.597,51.326 10.603,51.326 ZM19.492,3.514 C19.492,2.868 18.966,2.342 18.320,2.342 C17.674,2.342 17.148,2.868 17.148,3.514 L17.148,8.964 C17.148,9.609 17.674,10.136 18.320,10.136 C18.966,10.136 19.492,9.609 19.492,8.964 L19.492,3.514 ZM46.211,3.514 C46.211,2.868 45.685,2.342 45.039,2.342 C44.393,2.342 43.867,2.868 43.867,3.514 L43.867,8.964 C43.867,9.609 44.393,10.136 45.039,10.136 C45.685,10.136 46.211,9.609 46.211,8.964 L46.211,3.514 ZM8.000,43.717 L9.304,45.021 L13.120,41.205 C13.578,40.747 14.320,40.747 14.778,41.205 C15.235,41.663 15.235,42.405 14.778,42.861 L10.133,47.508 C9.913,47.727 9.615,47.851 9.304,47.851 C8.993,47.851 8.695,47.727 8.475,47.508 L6.342,45.375 C5.885,44.916 5.885,44.174 6.342,43.717 C6.800,43.259 7.542,43.259 8.000,43.717 Z"/>
</svg>