<svg 
 xmlns="http://www.w3.org/2000/svg"
 xmlns:xlink="http://www.w3.org/1999/xlink"
 width="61px" height="61px">
<path fill-rule="evenodd"  fill="rgb(246, 77, 1)"
 d="M42.541,28.346 C42.763,28.567 42.891,28.875 42.891,29.188 C42.891,29.502 42.763,29.809 42.541,30.030 C42.320,30.252 42.012,30.380 41.699,30.380 C41.385,30.380 41.078,30.252 40.857,30.030 C40.634,29.809 40.508,29.502 40.508,29.188 C40.508,28.875 40.634,28.567 40.857,28.346 C41.078,28.124 41.384,27.996 41.699,27.996 C42.012,27.996 42.320,28.124 42.541,28.346 ZM41.699,60.998 C31.056,60.998 22.398,52.340 22.398,41.697 C22.398,41.039 22.931,40.506 23.589,40.506 C24.247,40.506 24.781,41.039 24.781,41.697 C24.781,50.626 31.733,57.959 40.507,58.573 L40.507,33.954 C40.507,33.296 41.041,32.761 41.699,32.761 C42.357,32.761 42.890,33.296 42.890,33.954 L42.890,58.573 C51.665,57.960 58.617,50.626 58.617,41.697 C58.617,32.369 51.028,24.779 41.699,24.779 C40.334,24.779 38.979,24.943 37.666,25.264 C36.739,28.130 35.140,30.756 32.949,32.948 C29.304,36.593 24.457,38.600 19.301,38.600 C19.301,38.600 19.301,38.600 19.301,38.600 C14.145,38.600 9.298,36.593 5.653,32.948 C2.008,29.302 -0.000,24.455 -0.000,19.299 C0.000,14.144 2.008,9.297 5.653,5.652 C9.298,2.006 14.145,-0.002 19.301,-0.002 C24.456,-0.002 29.303,2.005 32.949,5.652 C36.594,9.296 38.601,14.144 38.601,19.299 C38.601,20.450 38.501,21.586 38.305,22.697 C39.421,22.498 40.557,22.396 41.699,22.396 C52.341,22.396 61.000,31.055 61.000,41.697 C61.000,52.340 52.342,60.998 41.699,60.998 ZM31.264,7.337 C28.068,4.141 23.820,2.381 19.301,2.381 C15.181,2.381 11.287,3.845 8.210,6.523 L28.491,26.804 C28.956,27.271 28.956,28.024 28.491,28.489 C28.258,28.722 27.953,28.839 27.648,28.839 C27.344,28.839 27.039,28.722 26.806,28.489 L6.525,8.209 C3.846,11.286 2.383,15.180 2.383,19.299 C2.383,23.818 4.142,28.067 7.338,31.263 C10.533,34.457 14.781,36.217 19.301,36.217 C23.820,36.217 28.069,34.457 31.264,31.263 C34.459,28.067 36.219,23.819 36.219,19.299 C36.219,14.780 34.459,10.532 31.264,7.337 ZM28.890,10.902 C28.585,10.902 28.280,10.785 28.047,10.553 C25.606,8.113 22.224,6.797 18.775,6.941 C18.115,6.969 17.562,6.459 17.534,5.802 C17.507,5.144 18.017,4.588 18.674,4.561 C22.791,4.386 26.821,5.956 29.732,8.868 C30.197,9.333 30.197,10.087 29.732,10.553 C29.499,10.785 29.194,10.902 28.890,10.902 ZM15.223,7.619 C15.093,7.664 14.961,7.685 14.831,7.685 C14.342,7.685 13.885,7.383 13.710,6.897 C13.487,6.278 13.808,5.596 14.427,5.373 C14.438,5.369 14.458,5.363 14.469,5.358 C15.094,5.154 15.767,5.495 15.972,6.121 C16.175,6.742 15.840,7.410 15.223,7.619 Z"/>
</svg>