<svg 
 xmlns="http://www.w3.org/2000/svg"
 xmlns:xlink="http://www.w3.org/1999/xlink"
 width="62px" height="61px">
<path fill-rule="evenodd"  fill="rgb(250, 89, 14)"
 d="M52.927,43.648 L52.927,33.724 C52.927,33.066 53.460,32.534 54.118,32.534 C54.775,32.534 55.309,33.066 55.309,33.724 L55.309,43.648 C55.309,44.306 54.775,44.838 54.118,44.838 C53.460,44.838 52.927,44.306 52.927,43.648 ZM54.117,49.363 C53.804,49.363 53.497,49.237 53.276,49.015 C53.054,48.793 52.927,48.487 52.927,48.174 C52.927,47.859 53.054,47.554 53.276,47.331 C53.497,47.109 53.804,46.981 54.117,46.981 C54.432,46.981 54.738,47.109 54.959,47.331 C55.182,47.552 55.308,47.859 55.308,48.174 C55.308,48.487 55.182,48.793 54.959,49.015 C54.738,49.237 54.432,49.363 54.117,49.363 ZM20.666,30.748 C20.888,30.969 21.015,31.277 21.015,31.589 C21.015,31.903 20.887,32.211 20.666,32.431 C20.445,32.653 20.137,32.781 19.824,32.781 C19.511,32.781 19.204,32.653 18.982,32.431 C18.761,32.211 18.633,31.903 18.633,31.589 C18.633,31.277 18.761,30.969 18.982,30.748 C19.204,30.527 19.511,30.399 19.824,30.399 C20.137,30.399 20.445,30.527 20.666,30.748 ZM55.072,60.996 L24.587,60.996 C21.304,60.996 18.633,58.325 18.633,55.042 L18.633,36.843 C18.633,36.186 19.167,35.652 19.824,35.652 C20.482,35.652 21.015,36.186 21.015,36.843 L21.015,55.042 C21.015,57.012 22.618,58.616 24.587,58.616 L55.072,58.616 C57.042,58.616 58.645,57.012 58.645,55.042 L58.645,22.566 C57.588,22.961 56.089,23.421 54.240,23.731 C53.054,23.930 51.637,24.076 50.041,24.076 C47.014,24.076 43.341,23.549 39.372,21.846 C30.415,18.006 23.090,20.607 21.015,21.516 L21.015,25.145 C21.015,25.801 20.482,26.335 19.824,26.335 C19.167,26.335 18.633,25.801 18.633,25.145 L18.633,1.218 C18.633,0.560 19.167,0.026 19.824,0.026 L59.836,0.026 C60.493,0.026 61.026,0.560 61.026,1.218 L61.026,55.042 C61.026,58.325 58.355,60.996 55.072,60.996 ZM58.645,2.409 L21.015,2.409 L21.015,18.948 C22.074,18.550 23.581,18.085 25.442,17.774 C28.878,17.198 34.248,17.059 40.310,19.657 C44.717,21.547 49.238,22.132 53.747,21.398 C56.066,21.020 57.785,20.372 58.645,19.997 L58.645,2.409 ZM10.234,60.998 C6.163,60.998 2.851,57.686 2.851,53.615 C2.851,49.543 6.163,46.231 10.234,46.231 C14.305,46.231 17.617,49.543 17.617,53.615 C17.617,57.686 14.305,60.998 10.234,60.998 ZM9.043,48.758 C6.859,49.293 5.233,51.268 5.233,53.615 C5.233,55.963 6.859,57.936 9.043,58.472 L9.043,48.758 ZM11.425,48.758 L11.425,58.472 C13.610,57.936 15.236,55.962 15.236,53.615 C15.236,51.267 13.610,49.293 11.425,48.758 ZM7.440,41.702 C5.467,41.702 3.613,40.934 2.219,39.540 C-0.660,36.661 -0.660,31.977 2.219,29.098 C5.098,26.220 9.782,26.220 12.660,29.098 C14.055,30.492 14.823,32.346 14.823,34.319 C14.823,36.291 14.055,38.146 12.660,39.540 C11.266,40.934 9.412,41.702 7.440,41.702 ZM3.903,37.856 C4.848,38.800 6.104,39.321 7.440,39.321 C8.369,39.321 9.259,39.068 10.034,38.597 L3.163,31.727 C1.997,33.650 2.243,36.196 3.903,37.856 ZM10.976,30.782 C10.001,29.807 8.720,29.319 7.440,29.319 C6.540,29.319 5.641,29.561 4.847,30.043 L11.718,36.913 C12.189,36.138 12.441,35.249 12.441,34.319 C12.441,32.982 11.921,31.727 10.976,30.782 Z"/>
</svg>