<svg 
 xmlns="http://www.w3.org/2000/svg"
 xmlns:xlink="http://www.w3.org/1999/xlink"
 width="40px" height="35px">
<path fill-rule="evenodd"  fill="rgb(163, 172, 181)"
 d="M39.812,32.288 L38.233,26.786 C38.195,26.673 38.120,26.561 38.045,26.486 C37.068,23.509 34.662,21.210 31.616,20.420 L31.165,20.345 C30.489,20.156 29.737,20.381 29.248,20.947 C27.594,22.832 25.489,22.982 23.271,22.982 C21.053,22.982 18.947,22.832 17.293,20.947 C16.804,20.381 16.053,20.156 15.376,20.345 L14.925,20.457 C12.632,21.062 10.677,22.528 9.436,24.488 L4.699,24.488 C4.662,24.488 4.662,24.488 4.624,24.452 C4.624,24.414 4.586,24.375 4.586,24.300 L5.564,20.797 C6.428,18.046 8.083,17.216 11.316,16.389 C11.466,16.350 11.579,16.275 11.654,16.200 C11.917,16.427 12.218,16.615 12.519,16.765 C12.632,16.840 12.744,16.840 12.857,16.840 C13.120,16.840 13.383,16.690 13.534,16.427 C13.722,16.050 13.571,15.598 13.195,15.409 C11.466,14.505 10.225,11.944 10.225,9.304 C10.225,6.970 12.143,5.048 14.474,5.048 C14.925,5.048 15.338,5.124 15.752,5.237 C15.338,6.255 15.113,7.348 15.113,8.515 C15.113,14.957 18.985,20.381 23.571,20.381 C28.083,20.381 32.068,14.845 32.068,8.515 C32.068,3.805 28.271,0.000 23.571,0.000 C20.601,0.000 17.970,1.544 16.466,3.880 C15.827,3.655 15.150,3.542 14.474,3.542 C12.444,3.542 10.639,4.634 9.624,6.255 C9.549,6.178 9.474,6.141 9.398,6.103 C8.835,5.803 8.271,5.689 7.632,5.689 C5.526,5.650 3.835,7.348 3.835,9.456 C3.835,10.662 4.173,11.792 4.699,12.697 C2.970,13.149 1.428,13.827 0.714,16.124 L0.113,18.310 C-0.000,18.687 0.075,19.102 0.301,19.403 C0.526,19.742 0.940,19.929 1.353,19.929 L4.248,19.929 C4.210,20.081 4.135,20.231 4.098,20.381 L3.120,23.923 C2.970,24.414 3.083,24.941 3.421,25.356 C3.722,25.769 4.173,25.996 4.699,25.996 L8.684,25.996 C8.571,26.258 8.496,26.523 8.421,26.786 L6.842,32.325 C6.692,32.965 6.804,33.643 7.218,34.170 C7.632,34.698 8.233,34.999 8.872,34.999 L31.428,34.999 L32.707,34.999 L37.782,34.999 C38.421,34.999 39.060,34.698 39.436,34.170 C39.850,33.643 40.000,32.965 39.812,32.288 ZM17.368,5.349 C17.406,5.313 17.444,5.274 17.481,5.199 C17.519,5.161 17.519,5.085 17.556,5.048 C18.722,2.938 20.977,1.507 23.571,1.507 C26.692,1.507 29.323,3.578 30.225,6.406 C28.910,6.668 27.519,6.141 26.692,5.011 C26.428,4.671 25.977,4.595 25.639,4.859 C25.489,4.973 25.413,5.085 25.376,5.237 C25.338,5.274 25.338,5.313 25.301,5.349 C24.248,7.497 20.714,8.402 16.692,7.609 C16.804,6.820 17.030,6.066 17.368,5.349 ZM19.474,9.381 C22.481,9.381 24.962,8.438 26.241,6.668 C27.180,7.497 28.346,7.950 29.586,7.950 C29.887,7.950 30.225,7.911 30.526,7.837 C30.564,8.063 30.564,8.250 30.564,8.477 C30.564,14.015 27.293,18.873 23.571,18.873 C20.000,18.873 16.880,14.392 16.616,9.117 C17.594,9.304 18.571,9.381 19.474,9.381 ZM1.654,18.422 L2.180,16.540 C2.632,14.994 3.571,14.542 5.451,14.090 C5.564,14.053 5.677,14.015 5.752,13.940 C5.940,14.090 6.090,14.203 6.316,14.318 C6.428,14.392 6.541,14.392 6.654,14.392 C6.917,14.392 7.180,14.242 7.331,13.978 C7.519,13.601 7.368,13.149 7.030,12.960 C6.053,12.433 5.338,10.962 5.338,9.456 C5.338,8.175 6.353,7.158 7.632,7.158 C8.045,7.158 8.383,7.233 8.722,7.423 C8.835,7.460 8.910,7.497 9.022,7.497 C8.835,8.063 8.722,8.665 8.722,9.304 C8.722,11.453 9.436,13.563 10.564,15.032 C8.308,15.598 6.316,16.350 5.000,18.422 L1.654,18.422 L1.654,18.422 ZM38.271,33.268 C38.195,33.343 38.045,33.493 37.782,33.493 L32.707,33.493 L31.428,33.493 L8.872,33.493 C8.609,33.493 8.459,33.343 8.383,33.268 C8.271,33.117 8.233,32.890 8.271,32.739 L9.850,27.240 C10.601,24.639 12.669,22.604 15.301,21.927 L15.752,21.814 C15.865,21.776 16.053,21.852 16.165,21.965 C18.233,24.340 20.789,24.527 23.271,24.527 C25.752,24.527 28.308,24.340 30.376,21.965 C30.489,21.852 30.639,21.776 30.827,21.814 L31.278,21.927 C33.872,22.604 35.977,24.639 36.729,27.240 L37.406,29.575 C37.444,29.687 37.481,29.762 37.556,29.839 L38.383,32.702 C38.421,32.890 38.383,33.117 38.271,33.268 Z"/>
</svg>