<svg 
 xmlns="http://www.w3.org/2000/svg"
 xmlns:xlink="http://www.w3.org/1999/xlink"
 width="27px" height="15px">
<path fill-rule="evenodd"  fill="rgb(253, 117, 50)"
 d="M26.337,13.239 L24.857,13.239 C24.630,14.248 23.747,15.000 22.686,15.000 C21.625,15.000 20.742,14.242 20.515,13.239 L19.455,13.239 L12.572,13.239 C12.346,14.248 11.462,15.000 10.401,15.000 C9.341,15.000 8.451,14.248 8.230,13.239 C8.214,13.239 8.203,13.239 8.186,13.239 L6.214,13.239 C5.850,13.239 5.551,12.936 5.551,12.566 L5.551,10.221 L2.972,10.221 C2.607,10.221 2.309,9.917 2.309,9.548 C2.309,9.177 2.607,8.873 2.972,8.873 L6.159,8.873 C6.170,8.873 6.176,8.873 6.187,8.873 C6.198,8.873 6.209,8.873 6.220,8.873 C6.584,8.873 6.883,9.177 6.883,9.548 L6.883,11.898 L8.192,11.898 C8.241,11.898 8.286,11.904 8.335,11.914 C8.661,11.079 9.462,10.484 10.401,10.484 C11.335,10.484 12.136,11.073 12.467,11.904 C12.495,11.898 12.522,11.898 12.550,11.898 L18.792,11.898 L18.792,2.872 L18.792,1.346 L6.883,1.346 L6.883,3.691 C6.883,4.061 6.584,4.364 6.220,4.364 C6.214,4.364 6.214,4.364 6.214,4.364 C6.209,4.364 6.203,4.364 6.198,4.364 L2.972,4.364 C2.607,4.364 2.309,4.061 2.309,3.691 C2.309,3.321 2.607,3.018 2.972,3.018 L5.551,3.018 L5.551,0.673 C5.551,0.303 5.850,-0.001 6.214,-0.001 L19.449,-0.001 C19.814,-0.001 20.112,0.303 20.112,0.673 L20.112,2.199 L22.890,2.199 C24.045,2.199 25.083,2.642 25.812,3.445 C26.586,4.296 27.000,5.520 27.000,6.973 L27.000,12.566 C27.000,12.936 26.702,13.239 26.337,13.239 ZM10.401,11.830 C9.904,11.830 9.501,12.241 9.501,12.745 C9.501,13.250 9.904,13.659 10.401,13.659 C10.898,13.659 11.302,13.250 11.302,12.745 C11.302,12.241 10.898,11.830 10.401,11.830 ZM22.686,13.659 C23.178,13.659 23.581,13.250 23.586,12.745 C23.586,12.241 23.183,11.830 22.686,11.830 C22.189,11.830 21.786,12.241 21.786,12.745 C21.786,13.250 22.189,13.659 22.686,13.659 ZM25.674,6.978 C25.674,4.829 24.636,3.545 22.896,3.545 L20.117,3.545 L20.117,11.898 L20.626,11.898 C20.957,11.068 21.758,10.484 22.686,10.484 C23.614,10.484 24.415,11.073 24.746,11.898 L25.674,11.898 L25.674,6.978 ZM11.467,5.419 C11.208,5.155 11.208,4.729 11.467,4.465 C11.727,4.201 12.147,4.201 12.406,4.465 L14.030,6.115 L14.036,6.120 C14.047,6.137 14.064,6.148 14.075,6.164 C14.080,6.176 14.086,6.182 14.091,6.193 C14.102,6.204 14.108,6.209 14.113,6.221 C14.119,6.233 14.124,6.243 14.130,6.255 C14.135,6.266 14.141,6.271 14.146,6.283 C14.152,6.294 14.157,6.305 14.163,6.316 C14.163,6.327 14.168,6.334 14.174,6.344 C14.180,6.356 14.180,6.367 14.185,6.378 C14.190,6.384 14.190,6.395 14.196,6.406 C14.196,6.417 14.201,6.429 14.201,6.440 C14.201,6.450 14.207,6.462 14.207,6.474 C14.207,6.490 14.213,6.501 14.213,6.512 C14.218,6.524 14.218,6.529 14.218,6.541 C14.224,6.586 14.224,6.630 14.218,6.675 C14.218,6.687 14.213,6.692 14.213,6.704 C14.213,6.720 14.207,6.731 14.207,6.743 C14.207,6.754 14.201,6.766 14.201,6.776 C14.201,6.788 14.201,6.799 14.196,6.810 C14.190,6.816 14.190,6.827 14.185,6.838 C14.180,6.849 14.180,6.861 14.174,6.872 C14.174,6.882 14.168,6.888 14.163,6.900 C14.157,6.911 14.152,6.922 14.146,6.933 C14.141,6.945 14.135,6.950 14.130,6.962 C14.124,6.973 14.119,6.984 14.113,6.995 C14.102,7.007 14.097,7.012 14.091,7.023 C14.086,7.034 14.080,7.040 14.075,7.051 C14.064,7.068 14.047,7.079 14.036,7.096 L14.030,7.102 L12.323,8.835 C12.191,8.963 12.025,9.032 11.854,9.032 C11.683,9.032 11.512,8.963 11.384,8.835 C11.125,8.571 11.125,8.145 11.384,7.881 L11.953,7.265 L0.663,7.265 C0.298,7.265 -0.000,6.962 -0.000,6.591 C-0.000,6.221 0.298,5.918 0.663,5.918 L11.959,5.918 L11.467,5.419 Z"/>
</svg>