<svg 
 xmlns="http://www.w3.org/2000/svg"
 xmlns:xlink="http://www.w3.org/1999/xlink"
 width="39px" height="39px">
<path fill-rule="evenodd"  fill="rgb(163, 172, 181)"
 d="M26.824,35.146 C25.540,35.144 24.264,34.935 23.045,34.532 C21.447,37.299 18.490,39.000 15.294,38.987 C14.065,38.993 12.849,38.742 11.720,38.258 C7.189,36.300 5.102,31.042 7.058,26.512 C4.126,24.637 1.991,21.744 1.067,18.387 C-1.000,10.889 3.405,3.133 10.905,1.066 C18.405,-1.000 26.160,3.406 28.226,10.904 C34.367,11.612 39.000,16.813 38.995,22.993 C38.990,29.710 33.541,35.151 26.824,35.146 ZM15.294,37.708 C17.956,37.717 20.431,36.341 21.827,34.074 C21.799,34.062 21.771,34.045 21.743,34.032 C21.513,33.926 21.285,33.810 21.060,33.690 L20.858,33.578 C20.602,33.434 20.349,33.281 20.101,33.116 C18.409,31.988 17.026,30.457 16.076,28.662 C15.603,28.713 15.128,28.740 14.654,28.742 C12.395,28.759 10.169,28.212 8.177,27.147 C7.798,28.074 7.604,29.067 7.607,30.069 C7.621,34.301 11.062,37.721 15.294,37.708 ZM27.104,11.635 C25.711,5.892 20.569,1.846 14.657,1.844 C7.582,1.842 1.844,7.574 1.842,14.649 C1.842,21.724 7.578,27.460 14.654,27.460 C15.216,27.462 15.778,27.423 16.335,27.347 L16.359,27.343 C16.658,27.305 16.956,27.255 17.253,27.195 C18.160,27.009 19.044,26.723 19.888,26.342 C20.633,26.012 21.342,25.606 22.006,25.132 C25.425,22.737 27.462,18.824 27.465,14.649 C27.467,13.635 27.346,12.622 27.104,11.635 ZM28.535,12.237 C29.474,17.612 27.219,23.047 22.750,26.179 L22.746,26.179 C22.014,26.700 21.232,27.147 20.412,27.513 C20.128,27.640 19.841,27.753 19.552,27.861 C19.462,27.895 19.373,27.924 19.283,27.956 C19.076,28.027 18.867,28.098 18.656,28.158 C18.561,28.186 18.465,28.215 18.369,28.242 C18.134,28.304 17.897,28.363 17.660,28.414 C17.598,28.427 17.540,28.444 17.476,28.456 L17.431,28.466 C17.447,28.493 17.465,28.520 17.482,28.549 C17.664,28.856 17.861,29.152 18.073,29.439 C18.093,29.466 18.112,29.496 18.133,29.523 C18.354,29.814 18.589,30.094 18.838,30.360 C18.885,30.413 18.932,30.463 18.981,30.515 C19.229,30.772 19.489,31.019 19.761,31.252 C19.810,31.294 19.861,31.332 19.911,31.374 C20.199,31.616 20.499,31.841 20.811,32.050 C21.483,32.500 22.204,32.870 22.962,33.155 C24.194,33.628 25.504,33.869 26.824,33.864 C32.155,33.850 36.691,29.980 37.542,24.718 C38.502,18.784 34.469,13.197 28.535,12.237 ZM33.870,22.335 L36.433,22.335 L36.433,23.617 L33.870,23.617 L33.870,22.335 ZM32.605,18.901 L34.824,17.620 L35.464,18.727 L33.245,20.009 L32.605,18.901 ZM29.793,29.400 L30.903,28.760 L32.184,30.980 L31.074,31.620 L29.793,29.400 ZM29.792,16.556 L31.072,14.336 L32.182,14.976 L30.901,17.196 L29.792,16.556 ZM35.465,27.228 L34.824,28.337 L32.606,27.057 L33.246,25.948 L35.465,27.228 ZM26.184,30.021 L27.465,30.021 L27.465,32.584 L26.184,32.584 L26.184,30.021 ZM21.464,30.976 L22.745,28.757 L23.855,29.399 L22.574,31.618 L21.464,30.976 ZM21.065,24.226 C20.208,24.806 19.274,25.265 18.291,25.590 L18.287,25.590 C17.116,25.983 15.889,26.181 14.654,26.179 C13.741,26.180 12.832,26.069 11.946,25.850 L11.941,25.850 C10.935,25.611 9.968,25.233 9.065,24.729 L9.063,24.730 C7.459,23.839 6.090,22.582 5.070,21.058 C1.528,15.765 2.947,8.606 8.240,5.065 C13.532,1.523 20.693,2.942 24.235,8.233 C27.776,13.525 26.357,20.685 21.065,24.226 ZM14.647,4.394 C8.987,4.399 4.401,8.989 4.405,14.649 C4.412,18.373 6.435,21.801 9.690,23.609 C10.493,24.058 11.353,24.396 12.247,24.608 L12.255,24.608 C14.116,25.057 16.067,24.974 17.885,24.372 L17.889,24.372 C18.761,24.084 19.590,23.677 20.350,23.162 C23.197,21.258 24.905,18.061 24.902,14.635 C24.899,8.977 20.307,4.390 14.647,4.394 ZM17.216,21.694 L12.091,21.694 C11.738,21.694 11.451,21.407 11.451,21.056 C11.451,20.701 11.738,20.415 12.091,20.415 L14.013,20.415 L14.013,9.791 L12.224,11.580 C11.976,11.819 11.582,11.819 11.334,11.580 C11.080,11.334 11.072,10.930 11.318,10.673 L14.201,7.792 C14.321,7.672 14.484,7.603 14.653,7.603 C15.007,7.603 15.294,7.890 15.294,8.246 L15.294,20.415 L17.216,20.415 C17.570,20.415 17.856,20.701 17.856,21.056 C17.856,21.407 17.570,21.694 17.216,21.694 ZM15.294,35.146 C16.085,35.149 16.865,34.964 17.572,34.611 L18.143,35.758 C17.259,36.201 16.283,36.430 15.294,36.427 C11.758,36.424 8.892,33.558 8.888,30.021 L10.170,30.021 C10.173,32.849 12.465,35.142 15.294,35.146 Z"/>
</svg>