<svg 
 xmlns="http://www.w3.org/2000/svg"
 xmlns:xlink="http://www.w3.org/1999/xlink"
 width="9px" height="146px">
<path fill-rule="evenodd"  fill="rgb(174, 195, 218)"
 d="M8.289,5.000 L5.000,1.696 L5.000,6.000 L4.000,6.000 L4.000,1.696 L0.711,5.000 L0.000,4.286 L4.000,0.268 L4.000,-0.000 L5.000,-0.000 L5.000,0.268 L9.000,4.286 L8.289,5.000 ZM5.000,114.000 L4.000,114.000 L4.000,107.000 L5.000,107.000 L5.000,114.000 ZM4.000,12.000 L5.000,12.000 L5.000,19.000 L4.000,19.000 L4.000,12.000 ZM5.000,30.000 L4.000,30.000 L4.000,24.000 L5.000,24.000 L5.000,30.000 ZM4.000,123.000 L5.000,123.000 L5.000,126.000 L8.000,126.000 L8.000,127.000 L5.000,127.000 L5.000,130.000 L4.000,130.000 L4.000,127.000 L1.000,127.000 L1.000,126.000 L4.000,126.000 L4.000,123.000 ZM5.000,146.000 L4.000,146.000 L4.000,139.000 L5.000,139.000 L5.000,146.000 Z"/>
</svg>