<svg 
 xmlns="http://www.w3.org/2000/svg"
 xmlns:xlink="http://www.w3.org/1999/xlink"
 width="21px" height="24px">
<path fill-rule="evenodd"  fill="rgb(232, 120, 69)"
 d="M17.955,15.074 C17.531,14.514 16.979,14.171 16.358,14.094 C15.743,14.021 15.120,14.209 14.552,14.656 L12.777,16.033 C12.656,15.945 12.534,15.863 12.417,15.785 C12.247,15.672 12.088,15.568 11.954,15.457 C10.588,14.341 9.392,12.953 8.296,11.216 C7.767,10.356 7.428,9.637 7.206,8.928 C7.663,8.605 8.091,8.263 8.507,7.933 C8.665,7.813 8.823,7.683 8.980,7.561 C10.160,6.642 10.327,5.285 9.405,4.114 L8.207,2.585 C8.071,2.413 7.930,2.235 7.800,2.056 C7.537,1.708 7.261,1.352 6.973,1.012 C6.546,0.473 5.997,0.147 5.387,0.073 C4.776,-0.001 4.154,0.182 3.595,0.598 C3.589,0.603 3.589,0.603 3.584,0.607 L1.671,2.111 C0.952,2.669 0.491,3.401 0.300,4.294 C-0.000,5.735 0.263,7.142 0.484,8.073 C1.026,10.351 1.989,12.514 3.529,14.899 C5.399,17.775 7.783,20.155 10.617,21.976 C11.701,22.659 13.158,23.492 14.861,23.810 C14.966,23.825 15.075,23.845 15.175,23.856 C16.331,23.999 17.353,23.707 18.215,22.975 C18.222,22.967 18.232,22.962 18.239,22.951 C18.537,22.671 18.873,22.422 19.225,22.158 C19.466,21.980 19.713,21.793 19.955,21.594 C20.514,21.140 20.848,20.577 20.924,19.961 C21.000,19.342 20.808,18.717 20.364,18.156 L17.955,15.074 ZM19.099,20.543 C19.095,20.543 19.094,20.547 19.099,20.543 C18.878,20.726 18.655,20.895 18.414,21.078 C18.051,21.346 17.680,21.628 17.325,21.954 C16.753,22.435 16.126,22.612 15.346,22.519 C15.271,22.508 15.190,22.499 15.116,22.485 C13.641,22.206 12.331,21.462 11.356,20.840 C8.692,19.129 6.444,16.884 4.680,14.176 C3.226,11.918 2.318,9.886 1.813,7.759 C1.501,6.457 1.450,5.474 1.637,4.569 C1.759,3.991 2.044,3.534 2.510,3.171 L4.426,1.682 C4.700,1.482 4.976,1.391 5.231,1.420 C5.546,1.460 5.778,1.681 5.919,1.860 C5.923,1.867 5.927,1.870 5.932,1.879 C6.202,2.196 6.456,2.527 6.723,2.880 C6.858,3.059 6.999,3.237 7.138,3.423 L8.337,4.947 C8.802,5.540 8.742,6.031 8.146,6.490 C7.983,6.621 7.825,6.749 7.663,6.870 C7.190,7.245 6.740,7.597 6.257,7.933 C6.246,7.940 6.235,7.942 6.229,7.952 C5.746,8.328 5.774,8.759 5.829,9.053 C5.832,9.072 5.836,9.086 5.839,9.099 C6.088,10.001 6.489,10.869 7.131,11.923 L7.136,11.927 C8.308,13.796 9.602,15.295 11.083,16.502 C11.273,16.656 11.470,16.790 11.658,16.911 C11.827,17.023 11.987,17.129 12.121,17.236 C12.139,17.248 12.158,17.268 12.176,17.277 C12.336,17.385 12.491,17.442 12.657,17.464 C13.072,17.517 13.364,17.287 13.460,17.212 L15.381,15.716 C15.573,15.568 15.868,15.398 16.183,15.432 C16.494,15.473 16.725,15.698 16.859,15.888 C16.863,15.892 16.863,15.892 16.868,15.895 L19.287,18.982 C19.740,19.554 19.675,20.078 19.099,20.543 Z"/>
</svg>