<svg 
 xmlns="http://www.w3.org/2000/svg"
 xmlns:xlink="http://www.w3.org/1999/xlink"
 width="19px" height="23px">
<path fill-rule="evenodd"  fill="rgb(232, 120, 69)"
 d="M18.769,20.423 C18.723,20.547 18.635,20.652 18.529,20.724 C18.390,20.814 15.067,23.001 9.507,23.001 C3.947,23.001 0.624,20.818 0.485,20.724 C0.375,20.652 0.291,20.547 0.245,20.423 C0.000,19.784 0.005,18.513 0.009,18.268 C0.009,18.261 0.009,18.256 0.009,18.253 C0.014,18.215 0.014,18.176 0.014,18.132 C0.042,17.192 0.102,14.989 2.108,14.278 C2.121,14.275 2.135,14.269 2.154,14.265 C4.247,13.715 5.971,12.479 5.990,12.465 C6.272,12.259 6.660,12.330 6.859,12.624 C7.058,12.911 6.988,13.312 6.706,13.515 C6.628,13.568 4.788,14.893 2.487,15.503 C1.410,15.899 1.290,17.085 1.257,18.169 C1.257,18.215 1.253,18.253 1.253,18.289 C1.243,18.716 1.276,19.381 1.350,19.760 C2.103,20.200 5.056,21.717 9.502,21.717 C13.967,21.717 16.902,20.206 17.651,19.765 C17.725,19.386 17.752,18.723 17.748,18.295 C17.743,18.256 17.743,18.217 17.743,18.176 C17.711,17.090 17.591,15.906 16.514,15.506 C14.212,14.897 12.372,13.577 12.294,13.519 C12.012,13.316 11.943,12.917 12.141,12.626 C12.340,12.335 12.728,12.266 13.010,12.470 C13.029,12.484 14.762,13.719 16.846,14.269 C16.860,14.275 16.879,14.278 16.893,14.283 C18.899,14.989 18.958,17.192 18.986,18.136 C18.986,18.179 18.991,18.217 18.991,18.256 C18.991,18.261 18.991,18.268 18.991,18.272 C18.996,18.518 19.000,19.788 18.769,20.423 ZM9.567,12.395 C9.553,12.395 9.535,12.395 9.521,12.395 C9.512,12.395 9.502,12.395 9.493,12.395 C9.465,12.395 9.442,12.395 9.419,12.395 C8.065,12.367 6.970,11.878 6.166,10.940 C4.386,8.871 4.682,5.327 4.714,4.990 C4.830,2.434 6.013,1.219 6.984,0.652 C7.950,0.085 8.957,-0.002 9.470,-0.002 L9.498,-0.002 C9.502,-0.002 9.512,-0.002 9.516,-0.002 L9.549,-0.002 C10.482,0.021 11.319,0.247 12.035,0.672 C12.997,1.241 14.161,2.452 14.277,4.990 C14.309,5.327 14.605,8.871 12.825,10.940 C12.017,11.878 10.921,12.367 9.567,12.395 ZM13.038,5.110 C13.034,5.100 13.034,5.084 13.034,5.071 C12.890,1.841 10.769,1.318 9.521,1.291 C9.507,1.291 9.493,1.291 9.484,1.291 L9.465,1.291 C8.458,1.291 6.105,1.659 5.953,5.071 C5.953,5.081 5.948,5.095 5.948,5.110 C5.944,5.136 5.629,8.390 7.095,10.085 C7.672,10.761 8.453,11.100 9.470,11.108 C9.479,11.108 9.484,11.108 9.493,11.108 C9.502,11.108 9.507,11.108 9.516,11.108 C10.538,11.100 11.314,10.761 11.897,10.085 C13.366,8.383 13.043,5.142 13.038,5.110 Z"/>
</svg>