<svg 
 xmlns="http://www.w3.org/2000/svg"
 xmlns:xlink="http://www.w3.org/1999/xlink"
 width="26px" height="41px">
<path fill-rule="evenodd"  fill="rgb(163, 172, 181)"
 d="M24.086,29.445 C23.749,29.445 23.475,29.176 23.475,28.845 C23.475,28.511 23.749,28.245 24.086,28.245 C24.468,28.245 24.780,27.939 24.780,27.561 L24.780,23.768 C24.780,22.773 24.218,21.879 23.315,21.434 L18.373,19.000 C17.498,18.571 16.954,17.704 16.954,16.743 L16.954,15.429 C16.828,15.513 16.699,15.592 16.566,15.667 C16.470,15.722 16.365,15.749 16.261,15.749 C16.051,15.749 15.846,15.641 15.733,15.448 C15.564,15.161 15.664,14.793 15.955,14.628 C17.778,13.588 18.911,11.657 18.911,9.587 L18.911,5.737 C18.911,3.236 16.259,1.201 13.000,1.201 C9.741,1.201 7.089,3.236 7.089,5.737 L7.089,9.587 C7.089,11.657 8.221,13.588 10.043,14.626 C10.334,14.792 10.434,15.161 10.265,15.447 C10.152,15.639 9.947,15.747 9.736,15.747 C9.633,15.747 9.528,15.720 9.431,15.665 C9.300,15.591 9.171,15.513 9.045,15.429 L9.045,16.743 C9.045,17.704 8.502,18.571 7.627,19.000 L2.685,21.434 C1.782,21.879 1.220,22.773 1.220,23.768 L1.220,27.561 C1.220,27.939 1.532,28.245 1.914,28.245 C2.251,28.245 2.524,28.511 2.524,28.845 C2.524,29.176 2.251,29.445 1.914,29.445 C0.859,29.445 -0.000,28.599 -0.000,27.561 L-0.000,23.768 C-0.000,22.315 0.820,21.009 2.140,20.360 L7.081,17.927 C7.540,17.701 7.825,17.247 7.825,16.743 L7.825,14.414 C6.589,13.125 5.869,11.402 5.869,9.587 L5.869,5.737 C5.869,2.572 9.068,0.000 13.000,0.000 C16.932,0.000 20.131,2.572 20.131,5.737 L20.131,9.587 C20.131,11.402 19.411,13.125 18.175,14.414 L18.175,16.743 C18.175,17.247 18.460,17.701 18.919,17.927 L23.860,20.360 C25.180,21.009 26.000,22.315 26.000,23.768 L26.000,27.561 C26.000,28.599 25.141,29.445 24.086,29.445 ZM10.082,30.414 L12.330,32.626 L16.109,28.906 C16.347,28.673 16.734,28.673 16.972,28.906 C17.210,29.141 17.210,29.522 16.972,29.756 L12.762,33.901 C12.643,34.017 12.486,34.078 12.330,34.078 C12.174,34.078 12.018,34.017 11.899,33.901 L9.220,31.264 C8.981,31.028 8.981,30.648 9.220,30.414 C9.458,30.179 9.844,30.179 10.082,30.414 ZM4.184,25.482 C4.188,25.482 4.193,25.482 4.197,25.482 C4.528,25.482 4.799,25.742 4.807,26.067 C4.807,26.090 4.872,28.296 5.957,31.093 C6.927,33.592 8.932,37.081 13.000,39.688 C17.068,37.081 19.073,33.592 20.043,31.093 C20.847,29.022 21.091,27.274 21.163,26.499 L13.000,23.703 L6.870,25.802 C6.552,25.911 6.204,25.745 6.093,25.432 C5.983,25.120 6.151,24.777 6.469,24.668 L12.800,22.502 C12.929,22.456 13.071,22.456 13.201,22.502 L22.004,25.515 C22.254,25.601 22.419,25.834 22.413,26.094 C22.411,26.192 22.349,28.492 21.201,31.475 C20.141,34.226 17.914,38.096 13.322,40.908 C13.224,40.970 13.112,40.999 13.000,40.999 C12.888,40.999 12.776,40.970 12.678,40.908 C8.086,38.096 5.859,34.226 4.799,31.476 C3.651,28.492 3.589,26.192 3.587,26.094 C3.580,25.763 3.847,25.489 4.184,25.482 Z"/>
</svg>