<svg 
 xmlns="http://www.w3.org/2000/svg"
 xmlns:xlink="http://www.w3.org/1999/xlink"
 width="55px" height="37px">
<defs>
<linearGradient id="PSgrad_0" x1="100%" x2="0%" y1="0%" y2="0%">
  <stop offset="0%" stop-color="rgb(255,107,0)" stop-opacity="1" />
  <stop offset="100%" stop-color="rgb(166,201,58)" stop-opacity="1" />
</linearGradient>

</defs>
<path fill-rule="evenodd"  fill="rgb(168, 202, 63)"
 d="M53.854,36.999 L51.565,36.999 C51.564,36.999 51.563,37.000 51.562,37.000 L44.687,37.000 C44.687,37.000 44.686,36.999 44.685,36.999 L37.815,36.999 C37.814,36.999 37.813,37.000 37.812,37.000 L30.937,37.000 C30.937,37.000 30.936,36.999 30.935,36.999 L24.065,36.999 C24.064,36.999 24.063,37.000 24.062,37.000 L17.187,37.000 C17.187,37.000 17.186,36.999 17.185,36.999 L10.312,36.999 L3.437,36.999 L1.146,36.999 C0.513,36.999 -0.000,36.482 -0.000,35.844 C-0.000,35.205 0.513,34.687 1.146,34.687 L2.292,34.687 L2.292,21.969 C2.292,21.329 2.805,20.813 3.437,20.813 L10.312,20.813 C10.945,20.813 11.458,21.329 11.458,21.969 L11.458,34.687 L16.042,34.687 L16.042,10.406 C16.042,9.768 16.555,9.250 17.187,9.250 L24.062,9.250 C24.695,9.250 25.208,9.768 25.208,10.406 L25.208,34.687 L29.792,34.687 L29.792,15.031 C29.792,14.393 30.305,13.875 30.937,13.875 L37.812,13.875 C38.445,13.875 38.958,14.392 38.958,15.031 L38.958,34.687 L43.542,34.687 L43.542,1.156 C43.542,0.518 44.055,-0.000 44.687,-0.000 L51.562,-0.000 C52.195,-0.000 52.708,0.518 52.708,1.156 L52.708,34.687 L53.854,34.687 C54.487,34.687 55.000,35.205 55.000,35.844 C55.000,36.482 54.487,36.999 53.854,36.999 ZM9.167,23.125 L4.583,23.125 L4.583,34.687 L9.167,34.687 L9.167,23.125 ZM22.917,11.562 L18.333,11.562 L18.333,34.687 L22.917,34.687 L22.917,11.562 ZM36.667,16.187 L32.083,16.187 L32.083,34.687 L36.667,34.687 L36.667,16.187 ZM50.417,2.312 L45.833,2.312 L45.833,34.687 L50.417,34.687 L50.417,2.312 Z"/>
<path fill="url(#PSgrad_0)"
 d="M53.854,36.999 L51.565,36.999 C51.564,36.999 51.563,37.000 51.562,37.000 L44.687,37.000 C44.687,37.000 44.686,36.999 44.685,36.999 L37.815,36.999 C37.814,36.999 37.813,37.000 37.812,37.000 L30.937,37.000 C30.937,37.000 30.936,36.999 30.935,36.999 L24.065,36.999 C24.064,36.999 24.063,37.000 24.062,37.000 L17.187,37.000 C17.187,37.000 17.186,36.999 17.185,36.999 L10.312,36.999 L3.437,36.999 L1.146,36.999 C0.513,36.999 -0.000,36.482 -0.000,35.844 C-0.000,35.205 0.513,34.687 1.146,34.687 L2.292,34.687 L2.292,21.969 C2.292,21.329 2.805,20.813 3.437,20.813 L10.312,20.813 C10.945,20.813 11.458,21.329 11.458,21.969 L11.458,34.687 L16.042,34.687 L16.042,10.406 C16.042,9.768 16.555,9.250 17.187,9.250 L24.062,9.250 C24.695,9.250 25.208,9.768 25.208,10.406 L25.208,34.687 L29.792,34.687 L29.792,15.031 C29.792,14.393 30.305,13.875 30.937,13.875 L37.812,13.875 C38.445,13.875 38.958,14.392 38.958,15.031 L38.958,34.687 L43.542,34.687 L43.542,1.156 C43.542,0.518 44.055,-0.000 44.687,-0.000 L51.562,-0.000 C52.195,-0.000 52.708,0.518 52.708,1.156 L52.708,34.687 L53.854,34.687 C54.487,34.687 55.000,35.205 55.000,35.844 C55.000,36.482 54.487,36.999 53.854,36.999 ZM9.167,23.125 L4.583,23.125 L4.583,34.687 L9.167,34.687 L9.167,23.125 ZM22.917,11.562 L18.333,11.562 L18.333,34.687 L22.917,34.687 L22.917,11.562 ZM36.667,16.187 L32.083,16.187 L32.083,34.687 L36.667,34.687 L36.667,16.187 ZM50.417,2.312 L45.833,2.312 L45.833,34.687 L50.417,34.687 L50.417,2.312 Z"/>
</svg>