<svg 
 xmlns="http://www.w3.org/2000/svg"
 xmlns:xlink="http://www.w3.org/1999/xlink"
 width="19px" height="20px">
<path fill-rule="evenodd"  fill="rgb(255, 107, 0)"
 d="M9.753,19.963 C9.671,19.986 9.585,20.000 9.500,20.000 C9.414,20.000 9.329,19.986 9.247,19.963 C0.000,17.068 0.145,10.207 0.251,5.199 C0.263,4.663 0.273,4.150 0.273,3.661 C0.273,3.276 0.619,2.966 1.046,2.966 C4.350,2.966 6.865,2.107 8.961,0.264 C9.261,0.002 9.738,0.000 10.038,0.264 C12.135,2.107 14.651,2.966 17.955,2.966 C18.382,2.966 18.727,3.276 18.727,3.661 C18.727,4.150 18.738,4.661 18.750,5.199 C18.855,10.206 19.000,17.068 9.753,19.963 ZM17.205,5.226 C17.198,4.923 17.192,4.630 17.188,4.345 C14.093,4.227 11.618,3.380 9.500,1.715 C7.382,3.380 4.907,4.227 1.813,4.345 C1.809,4.630 1.802,4.923 1.796,5.226 C1.690,10.261 1.570,15.959 9.500,18.562 C17.431,15.959 17.311,10.261 17.205,5.226 ZM8.978,12.457 C8.827,12.594 8.629,12.659 8.432,12.659 C8.234,12.659 8.036,12.594 7.885,12.457 L5.748,10.528 C5.446,10.254 5.446,9.815 5.748,9.541 C6.049,9.267 6.539,9.267 6.840,9.541 L8.432,10.977 L12.160,7.607 C12.462,7.337 12.951,7.337 13.253,7.607 C13.554,7.884 13.554,8.323 13.253,8.595 L8.978,12.457 Z"/>
</svg>