<svg 
 xmlns="http://www.w3.org/2000/svg"
 xmlns:xlink="http://www.w3.org/1999/xlink"
 width="385px" height="322px">
<path fill-rule="evenodd"  stroke-width="4px" stroke="rgb(98, 189, 31)" fill="rgb(255, 255, 255)"
 d="M368.000,314.998 L18.000,314.998 C12.477,314.998 8.000,310.521 8.000,304.997 L8.000,17.998 C8.000,12.475 12.477,7.997 18.000,7.997 L143.025,7.997 C143.019,8.331 143.000,8.662 143.000,8.998 C143.000,36.613 165.386,58.998 193.000,58.998 C220.614,58.998 243.000,36.613 243.000,8.998 C243.000,8.662 242.981,8.331 242.975,7.997 L368.000,7.997 C373.523,7.997 378.000,12.475 378.000,17.998 L378.000,304.997 C378.000,310.521 373.523,314.998 368.000,314.998 Z"/>
</svg>