<svg 
 xmlns="http://www.w3.org/2000/svg"
 xmlns:xlink="http://www.w3.org/1999/xlink"
 width="48px" height="75px">
<path fill-rule="evenodd"  fill="rgb(255, 107, 0)"
 d="M29.508,30.556 L28.383,33.612 C28.283,33.885 28.076,34.108 27.810,34.231 C27.544,34.353 27.238,34.366 26.962,34.267 L25.473,33.731 L24.931,35.204 C24.767,35.649 24.342,35.926 23.889,35.926 C23.764,35.926 23.635,35.905 23.510,35.859 L20.421,34.748 C20.145,34.648 19.920,34.444 19.796,34.181 C19.671,33.917 19.658,33.615 19.759,33.342 L20.301,31.869 L18.811,31.333 C18.535,31.233 18.310,31.029 18.186,30.766 C18.062,30.503 18.048,30.201 18.149,29.928 L19.273,26.871 C19.483,26.302 20.119,26.009 20.694,26.216 L22.183,26.752 L22.725,25.279 C22.826,25.005 23.032,24.783 23.298,24.661 C23.565,24.537 23.870,24.524 24.146,24.624 L27.236,25.736 C27.811,25.944 28.107,26.573 27.898,27.141 L27.356,28.615 L28.845,29.151 C29.420,29.358 29.717,29.986 29.508,30.556 ZM25.556,30.300 C24.981,30.093 24.684,29.464 24.894,28.895 L25.436,27.422 L24.429,27.059 L23.887,28.533 C23.787,28.806 23.581,29.028 23.314,29.152 C23.047,29.273 22.743,29.287 22.467,29.188 L20.977,28.651 L20.611,29.647 L22.101,30.184 C22.676,30.390 22.973,31.020 22.763,31.589 L22.221,33.062 L23.227,33.424 L23.769,31.951 C23.978,31.382 24.614,31.088 25.190,31.296 L26.679,31.832 L27.045,30.837 L25.556,30.300 ZM31.804,27.622 C32.405,27.509 32.986,27.899 33.101,28.494 C33.420,30.141 33.280,31.850 32.697,33.434 C31.304,37.222 27.675,39.579 23.819,39.579 C22.749,39.579 21.662,39.398 20.600,39.015 C15.710,37.254 13.179,31.886 14.959,27.048 C15.821,24.704 17.555,22.833 19.840,21.779 C22.124,20.726 24.687,20.614 27.057,21.468 C28.475,21.979 29.761,22.827 30.776,23.919 C31.190,24.365 31.160,25.059 30.709,25.469 C30.258,25.878 29.557,25.849 29.143,25.401 C28.356,24.555 27.399,23.924 26.298,23.529 C24.486,22.876 22.525,22.961 20.776,23.767 C19.028,24.572 17.702,26.006 17.042,27.798 C16.383,29.591 16.468,31.531 17.284,33.261 C18.099,34.990 19.546,36.301 21.358,36.954 C25.099,38.301 29.252,36.386 30.614,32.685 C31.060,31.472 31.167,30.165 30.923,28.905 C30.808,28.311 31.202,27.736 31.804,27.622 ZM47.791,11.781 L45.604,17.725 C45.603,17.726 45.602,17.728 45.602,17.730 C45.597,17.741 45.592,17.752 45.587,17.763 C45.578,17.788 45.568,17.811 45.557,17.834 C45.556,17.836 45.555,17.838 45.554,17.841 L30.065,48.434 C29.017,50.504 26.899,51.729 24.674,51.729 C23.987,51.729 23.291,51.612 22.613,51.368 L21.921,51.118 L19.455,57.820 C19.291,58.264 18.866,58.542 18.413,58.542 C18.288,58.542 18.160,58.519 18.034,58.474 L9.922,55.554 C9.645,55.455 9.421,55.250 9.296,54.987 C9.172,54.723 9.159,54.421 9.259,54.148 L11.725,47.447 L11.033,47.198 C8.156,46.161 6.521,43.159 7.231,40.212 L12.537,18.170 C12.679,17.580 13.277,17.216 13.873,17.357 C14.468,17.498 14.836,18.089 14.694,18.678 L9.387,40.721 C8.939,42.584 9.972,44.482 11.791,45.137 L13.524,45.761 C13.524,45.761 13.524,45.761 13.525,45.762 L21.637,48.683 L21.638,48.683 L23.371,49.307 C25.190,49.961 27.215,49.164 28.082,47.452 L43.014,17.960 L37.428,15.948 L17.113,8.634 L15.743,14.323 C15.601,14.913 15.003,15.277 14.407,15.136 C13.812,14.996 13.444,14.405 13.586,13.816 L15.244,6.928 C15.245,6.926 15.246,6.922 15.247,6.920 C15.253,6.895 15.261,6.871 15.269,6.845 C15.272,6.835 15.275,6.823 15.279,6.812 C15.280,6.811 15.280,6.809 15.281,6.807 L17.468,0.862 C17.677,0.294 18.313,-0.001 18.889,0.207 L23.594,1.901 C23.594,1.901 23.595,1.901 23.595,1.901 C23.596,1.902 23.596,1.902 23.597,1.902 L47.128,10.374 C47.703,10.581 48.000,11.211 47.791,11.781 ZM13.808,48.197 L11.721,53.868 L17.751,56.039 L19.837,50.368 L13.808,48.197 ZM42.705,11.116 L41.991,13.057 C41.827,13.502 41.402,13.779 40.949,13.779 C40.823,13.779 40.695,13.757 40.570,13.712 C39.995,13.506 39.698,12.877 39.907,12.308 L40.622,10.366 L37.998,9.421 L37.284,11.363 C37.120,11.808 36.695,12.085 36.242,12.085 C36.117,12.085 35.989,12.063 35.863,12.019 C35.288,11.812 34.991,11.182 35.201,10.612 L35.915,8.670 L33.292,7.727 L32.577,9.668 C32.414,10.113 31.988,10.390 31.536,10.390 C31.410,10.390 31.282,10.369 31.157,10.324 C30.581,10.116 30.285,9.488 30.494,8.919 L31.209,6.977 L28.585,6.033 L27.871,7.974 C27.707,8.419 27.282,8.696 26.829,8.696 C26.703,8.696 26.575,8.674 26.450,8.629 C25.875,8.421 25.578,7.792 25.788,7.223 L26.502,5.282 L23.879,4.338 L23.164,6.279 C23.001,6.724 22.575,7.001 22.122,7.001 C21.997,7.001 21.869,6.981 21.744,6.934 C21.168,6.727 20.872,6.098 21.081,5.529 L21.796,3.587 L19.172,2.642 L17.743,6.526 L30.822,11.235 L43.900,15.943 L45.329,12.060 L42.705,11.116 ZM7.944,57.897 C7.575,58.542 7.381,59.272 7.381,60.010 C7.381,62.384 9.334,64.316 11.734,64.316 L27.954,64.316 C32.515,64.316 36.226,67.987 36.226,72.498 L36.226,73.903 C36.226,74.509 35.729,74.999 35.117,74.999 L16.171,74.999 C15.559,74.999 15.062,74.509 15.062,73.903 C15.062,73.297 15.559,72.807 16.171,72.807 L34.008,72.807 L34.008,72.498 C34.008,69.196 31.293,66.510 27.954,66.510 L11.734,66.510 C8.111,66.510 5.164,63.593 5.164,60.010 C5.164,59.843 5.170,59.677 5.183,59.513 C3.349,60.882 2.217,63.046 2.217,65.412 C2.217,69.490 5.570,72.807 9.692,72.807 L11.655,72.807 C12.267,72.807 12.763,73.297 12.763,73.903 C12.763,74.509 12.267,74.999 11.655,74.999 L9.692,74.999 C4.348,74.999 -0.000,70.699 -0.000,65.412 C-0.000,61.278 2.664,57.623 6.628,56.317 C7.063,56.173 7.543,56.310 7.834,56.660 C8.126,57.010 8.169,57.502 7.944,57.897 Z"/>
</svg>