<svg 
 xmlns="http://www.w3.org/2000/svg"
 xmlns:xlink="http://www.w3.org/1999/xlink"
 width="59px" height="63px">
<path fill-rule="evenodd"  fill="rgb(255, 107, 0)"
 d="M53.721,52.760 L38.939,61.322 C34.319,63.999 28.424,62.461 25.690,57.864 L6.096,57.864 C2.735,57.864 0.000,55.119 0.000,51.746 L0.000,28.055 C0.000,26.741 0.433,25.439 1.219,24.385 L7.315,16.229 L7.315,12.757 C5.896,12.253 4.877,10.892 4.877,9.297 L4.877,3.670 C4.877,1.646 6.518,-0.001 8.535,-0.001 L30.481,-0.001 C32.497,-0.001 34.138,1.646 34.138,3.670 L34.138,9.297 C34.138,10.892 33.119,12.253 31.700,12.757 L31.700,16.229 L37.796,24.384 C38.582,25.439 39.015,26.741 39.015,28.055 L39.015,38.678 L43.968,35.809 C48.637,33.104 54.596,34.707 57.291,39.391 C60.000,44.101 58.349,50.078 53.721,52.760 ZM2.439,51.746 C2.439,53.770 4.079,55.417 6.096,55.417 L24.648,55.417 C24.206,53.791 24.203,52.098 24.590,50.511 L2.439,50.511 L2.439,51.746 ZM31.700,3.670 C31.700,2.995 31.153,2.446 30.480,2.446 L8.535,2.446 C7.862,2.446 7.315,2.995 7.315,3.670 L7.316,3.670 L7.316,9.297 C7.316,9.972 7.862,10.520 8.535,10.520 L30.480,10.520 C31.153,10.520 31.700,9.972 31.700,9.297 L31.700,3.670 ZM35.845,25.852 L29.871,17.861 L18.288,17.861 C17.615,17.861 17.069,17.312 17.069,16.637 C17.069,15.961 17.615,15.414 18.288,15.414 L29.261,15.414 L29.261,12.967 L9.754,12.967 L9.754,16.637 C9.754,16.901 9.668,17.159 9.510,17.371 L3.170,25.852 C2.780,26.375 2.538,27.000 2.464,27.647 L36.551,27.647 C36.478,27.001 36.235,26.375 35.845,25.852 ZM36.577,30.094 L2.439,30.094 L2.439,48.077 L25.546,48.077 C26.399,46.537 27.644,45.266 29.185,44.372 L36.577,40.090 L36.577,30.094 ZM37.023,42.657 L30.405,46.491 C26.928,48.505 25.697,52.972 27.728,56.519 C29.750,60.032 34.221,61.231 37.720,59.204 L44.338,55.370 L37.023,42.657 ZM55.179,40.614 C53.158,37.101 48.688,35.900 45.187,37.928 L39.135,41.434 L46.450,54.147 L52.502,50.640 C55.975,48.629 57.210,44.146 55.179,40.614 ZM24.384,40.736 L20.727,40.736 L20.727,44.406 C20.727,45.082 20.181,45.629 19.508,45.629 C18.834,45.629 18.288,45.082 18.288,44.406 L18.288,40.736 L14.631,40.736 C13.958,40.736 13.412,40.189 13.412,39.513 C13.412,38.838 13.958,38.290 14.631,38.290 L18.288,38.290 L18.288,34.620 C18.288,33.945 18.834,33.396 19.508,33.396 C20.181,33.396 20.727,33.945 20.727,34.620 L20.727,38.290 L24.384,38.290 C25.058,38.290 25.604,38.838 25.604,39.513 C25.604,40.189 25.058,40.736 24.384,40.736 ZM13.412,15.414 C14.084,15.414 14.631,15.961 14.631,16.637 C14.631,17.312 14.084,17.861 13.412,17.861 C12.738,17.861 12.192,17.312 12.192,16.637 C12.192,15.961 12.738,15.414 13.412,15.414 Z"/>
</svg>