<svg 
 xmlns="http://www.w3.org/2000/svg"
 xmlns:xlink="http://www.w3.org/1999/xlink"
 width="70px" height="66px">
<path fill-rule="evenodd"  fill="rgb(255, 107, 0)"
 d="M29.494,1.612 C29.394,0.908 29.888,0.256 30.599,0.155 C31.311,0.056 31.968,0.547 32.068,1.251 L34.126,15.667 C34.227,16.371 33.732,17.022 33.022,17.122 C32.960,17.131 32.898,17.135 32.838,17.135 C32.201,17.135 31.644,16.671 31.553,16.027 L29.494,1.612 ZM63.759,6.542 L62.741,7.550 C62.234,8.053 62.234,8.868 62.741,9.371 C63.249,9.873 64.072,9.873 64.580,9.371 L65.597,8.363 L66.615,9.371 C66.869,9.622 67.201,9.748 67.534,9.748 C67.867,9.748 68.199,9.622 68.453,9.371 C68.961,8.868 68.961,8.053 68.453,7.550 L67.436,6.542 L68.454,5.533 C68.961,5.031 68.961,4.215 68.454,3.712 C67.946,3.208 67.123,3.208 66.615,3.712 L65.597,4.720 L64.579,3.712 C64.072,3.208 63.249,3.208 62.741,3.712 C62.233,4.215 62.233,5.031 62.741,5.533 L63.759,6.542 ZM26.042,23.267 C26.298,23.600 26.684,23.773 27.075,23.773 C27.350,23.773 27.628,23.686 27.864,23.507 C28.434,23.074 28.542,22.267 28.106,21.702 L16.631,6.865 C16.194,6.300 15.378,6.193 14.808,6.626 C14.239,7.058 14.131,7.867 14.567,8.431 L26.042,23.267 ZM4.707,11.241 L5.137,11.569 C5.373,11.749 5.652,11.836 5.928,11.836 C6.318,11.836 6.704,11.663 6.960,11.332 C7.397,10.768 7.291,9.960 6.721,9.527 L6.291,9.199 C5.722,8.766 4.906,8.872 4.468,9.436 C4.031,9.999 4.138,10.808 4.707,11.241 ZM3.609,27.201 C2.897,27.106 2.244,27.603 2.150,28.308 C2.055,29.014 2.556,29.660 3.268,29.754 L16.561,31.498 C16.619,31.505 16.677,31.509 16.733,31.509 C17.375,31.509 17.934,31.038 18.020,30.390 C18.114,29.685 17.614,29.038 16.902,28.945 L3.609,27.201 ZM8.944,14.468 L21.579,24.087 C21.816,24.267 22.094,24.354 22.371,24.354 C22.761,24.354 23.146,24.181 23.402,23.851 C23.840,23.287 23.733,22.478 23.164,22.045 L10.528,12.426 C9.959,11.992 9.143,12.099 8.706,12.663 C8.268,13.226 8.375,14.034 8.944,14.468 ZM36.900,17.256 C36.959,17.264 37.018,17.268 37.076,17.268 C37.717,17.268 38.274,16.799 38.363,16.153 L40.354,1.612 C40.450,0.908 39.952,0.259 39.240,0.164 C38.528,0.068 37.874,0.561 37.778,1.265 L35.787,15.807 C35.690,16.513 36.189,17.161 36.900,17.256 ZM66.532,35.454 L48.704,33.116 C47.993,33.024 47.339,33.518 47.245,34.224 C47.151,34.928 47.651,35.576 48.363,35.669 L66.191,38.008 C66.249,38.015 66.306,38.019 66.363,38.019 C67.005,38.019 67.563,37.547 67.650,36.900 C67.744,36.195 67.244,35.548 66.532,35.454 ZM67.656,28.356 C67.563,27.651 66.910,27.155 66.199,27.248 L52.823,28.982 C52.111,29.075 51.610,29.721 51.703,30.426 C51.788,31.074 52.347,31.546 52.990,31.546 C53.046,31.546 53.103,31.542 53.160,31.535 L66.536,29.800 C67.248,29.708 67.750,29.062 67.656,28.356 ZM59.302,12.461 L46.717,22.013 C46.147,22.445 46.039,23.253 46.476,23.818 C46.732,24.150 47.118,24.323 47.509,24.323 C47.784,24.323 48.062,24.237 48.298,24.058 L60.883,14.506 C61.452,14.074 61.560,13.265 61.124,12.701 C60.687,12.136 59.871,12.029 59.302,12.461 ZM55.825,5.615 C56.061,5.794 56.340,5.882 56.616,5.882 C57.006,5.882 57.392,5.709 57.648,5.379 L57.763,5.232 C58.200,4.667 58.094,3.860 57.525,3.426 C56.955,2.992 56.139,3.098 55.702,3.662 L55.587,3.810 C55.149,4.373 55.256,5.181 55.825,5.615 ZM58.139,2.630 C58.375,2.811 58.654,2.898 58.930,2.898 C59.320,2.898 59.705,2.725 59.961,2.395 L60.083,2.240 C60.521,1.676 60.414,0.867 59.845,0.433 C59.276,-0.000 58.460,0.105 58.023,0.668 L57.901,0.825 C57.463,1.388 57.570,2.196 58.139,2.630 ZM42.016,23.432 C42.252,23.612 42.530,23.698 42.807,23.698 C43.197,23.698 43.582,23.525 43.838,23.196 L55.269,8.461 C55.707,7.897 55.600,7.089 55.031,6.655 C54.462,6.223 53.645,6.328 53.208,6.891 L41.777,21.627 C41.340,22.189 41.446,22.998 42.016,23.432 ZM2.725,8.107 C3.162,7.543 3.055,6.735 2.486,6.301 L2.260,6.130 C1.690,5.696 0.875,5.802 0.437,6.367 C0.000,6.930 0.107,7.739 0.676,8.171 L0.902,8.344 C1.138,8.523 1.417,8.610 1.693,8.610 C2.083,8.610 2.469,8.437 2.725,8.107 ZM43.192,42.626 C43.320,43.143 43.116,43.683 42.677,43.990 C42.238,44.295 41.655,44.302 41.209,44.007 L35.120,39.985 L28.557,44.029 C28.346,44.159 28.108,44.223 27.870,44.223 C27.595,44.223 27.320,44.137 27.090,43.966 C26.661,43.646 26.474,43.099 26.619,42.587 L28.599,35.609 L22.688,30.675 C22.278,30.332 22.122,29.774 22.296,29.272 C22.470,28.769 22.937,28.424 23.473,28.403 L30.786,28.112 L33.696,21.018 C33.898,20.526 34.382,20.210 34.921,20.215 C35.457,20.224 35.933,20.557 36.119,21.056 L38.658,27.856 L46.368,28.405 C46.903,28.443 47.359,28.804 47.517,29.311 C47.675,29.819 47.501,30.371 47.080,30.701 L41.337,35.193 L43.192,42.626 ZM39.069,33.686 L42.840,30.736 L37.637,30.364 C37.128,30.328 36.688,30.001 36.511,29.527 L34.843,25.062 L32.879,29.850 C32.687,30.318 32.236,30.631 31.727,30.652 L26.924,30.843 L30.914,34.173 C31.304,34.499 31.466,35.020 31.328,35.506 L30.027,40.091 L34.457,37.360 C34.890,37.093 35.441,37.103 35.865,37.382 L39.864,40.024 L38.612,35.006 C38.490,34.516 38.668,34.000 39.069,33.686 ZM60.574,63.687 C60.138,63.121 59.322,63.015 58.752,63.447 C58.182,63.880 58.075,64.688 58.511,65.253 L58.699,65.496 C58.955,65.826 59.341,66.000 59.732,66.000 C60.007,66.000 60.286,65.913 60.522,65.734 C61.091,65.301 61.199,64.493 60.762,63.929 L60.574,63.687 ZM3.629,23.517 L4.647,22.509 L5.664,23.517 C5.918,23.769 6.251,23.894 6.583,23.894 C6.916,23.894 7.249,23.769 7.503,23.517 C8.010,23.015 8.010,22.199 7.503,21.695 L6.485,20.688 L7.503,19.679 C8.010,19.176 8.010,18.361 7.503,17.858 C6.995,17.355 6.172,17.355 5.664,17.858 L4.647,18.867 L3.629,17.858 C3.121,17.355 2.298,17.355 1.790,17.858 C1.283,18.361 1.283,19.176 1.790,19.679 L2.808,20.688 L1.791,21.695 C1.283,22.199 1.283,23.015 1.791,23.517 C2.298,24.019 3.121,24.019 3.629,23.517 ZM58.074,60.451 L57.886,60.207 C57.449,59.643 56.633,59.537 56.064,59.970 C55.494,60.402 55.386,61.210 55.823,61.775 L56.011,62.018 C56.267,62.349 56.653,62.522 57.043,62.522 C57.319,62.522 57.597,62.435 57.833,62.256 C58.403,61.823 58.511,61.015 58.074,60.451 ZM68.474,45.554 L69.492,44.546 C70.000,44.044 70.000,43.227 69.492,42.726 C68.984,42.223 68.162,42.223 67.654,42.726 L66.636,43.734 L65.618,42.725 C65.110,42.222 64.288,42.223 63.780,42.725 C63.272,43.227 63.272,44.044 63.780,44.546 L64.798,45.554 L63.780,46.562 C63.272,47.066 63.272,47.880 63.780,48.383 C64.288,48.886 65.111,48.886 65.618,48.383 L66.636,47.375 L67.654,48.383 C67.908,48.635 68.240,48.761 68.573,48.761 C68.906,48.761 69.238,48.635 69.492,48.383 C70.000,47.880 70.000,47.066 69.492,46.562 L68.474,45.554 ZM60.855,50.741 L48.743,41.519 C48.174,41.085 47.358,41.191 46.920,41.755 C46.483,42.319 46.589,43.128 47.158,43.560 L59.271,52.782 C59.507,52.962 59.786,53.050 60.062,53.050 C60.452,53.050 60.838,52.877 61.094,52.546 C61.531,51.982 61.425,51.174 60.855,50.741 ZM48.770,48.421 C48.333,47.856 47.517,47.750 46.948,48.182 C46.378,48.615 46.270,49.423 46.706,49.988 L53.169,58.343 C53.425,58.675 53.811,58.848 54.202,58.848 C54.477,58.848 54.755,58.761 54.991,58.582 C55.561,58.149 55.669,57.342 55.233,56.778 L48.770,48.421 ZM22.927,41.691 C22.491,41.126 21.675,41.020 21.105,41.452 L8.917,50.703 C8.347,51.134 8.239,51.943 8.676,52.508 C8.931,52.839 9.318,53.012 9.708,53.012 C9.984,53.012 10.262,52.925 10.498,52.746 L22.686,43.496 C23.256,43.064 23.364,42.255 22.927,41.691 ZM9.715,58.748 C9.207,58.245 8.384,58.245 7.876,58.748 L6.858,59.756 L5.841,58.748 C5.333,58.245 4.510,58.245 4.002,58.748 C3.494,59.251 3.494,60.066 4.002,60.569 L5.020,61.576 L4.002,62.585 C3.494,63.088 3.494,63.903 4.002,64.407 C4.510,64.909 5.333,64.909 5.840,64.407 L6.858,63.398 L7.876,64.407 C8.130,64.657 8.462,64.784 8.795,64.784 C9.128,64.784 9.460,64.657 9.714,64.407 C10.222,63.903 10.222,63.088 9.714,62.585 L8.697,61.576 L9.714,60.569 C10.222,60.066 10.222,59.251 9.715,58.748 ZM22.431,34.221 C22.338,33.515 21.683,33.020 20.974,33.111 L3.263,35.408 C2.552,35.500 2.050,36.146 2.143,36.851 C2.229,37.500 2.788,37.972 3.430,37.972 C3.487,37.972 3.544,37.969 3.601,37.961 L21.311,35.664 C22.023,35.572 22.525,34.925 22.431,34.221 ZM38.363,49.321 C38.266,48.616 37.609,48.124 36.900,48.219 C36.189,48.314 35.690,48.962 35.787,49.667 L37.778,64.208 C37.866,64.854 38.424,65.323 39.064,65.323 C39.122,65.323 39.181,65.319 39.240,65.311 C39.952,65.216 40.450,64.567 40.354,63.863 L38.363,49.321 ZM33.022,48.352 C32.312,48.252 31.653,48.743 31.552,49.447 L29.494,63.863 C29.394,64.567 29.888,65.218 30.599,65.318 C30.661,65.326 30.722,65.331 30.783,65.331 C31.420,65.331 31.976,64.866 32.068,64.224 L34.126,49.808 C34.227,49.103 33.732,48.452 33.022,48.352 ZM22.828,48.164 C22.259,47.731 21.443,47.837 21.006,48.400 L14.531,56.748 C14.093,57.311 14.200,58.119 14.769,58.553 C15.005,58.733 15.284,58.821 15.560,58.821 C15.950,58.821 16.336,58.646 16.592,58.317 L23.067,49.971 C23.504,49.407 23.398,48.598 22.828,48.164 Z"/>
</svg>